# xmcd CD database file generated by Grip 2.95
# 
# Track frame offsets:
#       187
#       13290
#       29335
#       44712
#       56747
#       69060
#       84382
#       97915
#       112227
#       126482
#       137367
#       153165
#       166822
#       182160
#       194827
#       211070
#       226537
#       246040
#       258557
#       274280
# 
# Disc length: 3850 seconds
# 
# Revision: 3
# Processed by: cddbd v1.4b41PL1 Copyright (c) Steve Scherf et al.
# Submitted via: Grip 2.95
# 
DISCID=190f0814
DTITLE=Oak Ridge Boys - Bobbie Sue - Step On Out
DYEAR=1900
DGENRE=
TTITLE0=Bobbie Sue
TTITLE1=I Wish You Were Here (Oh My Darling)
TTITLE2=Doctor's Orders
TTITLE3=Old Kentucky Song
TTITLE4=So Fine
TTITLE5=I Wish You Could Have Turned My Head (And Left My Heart Alone)
TTITLE6=Back in Your Arms Again
TTITLE7=Up On Cripple Creek
TTITLE8=Until You
TTITLE9=Would The Love Him Down In Shreveport
TTITLE10=Touch A Hand, Make A Friend
TTITLE11=Ophelia
TTITLE12=Love Is Everywhere
TTITLE13=Only One I Love
TTITLE14=Roll Tennessee River
TTITLE15=Little Things
TTITLE16=Class Reunion
TTITLE17=Staying Afloat
TTITLE18=Come On In (You Did The Best You Could Do)
TTITLE19=Step On Out
EXTD=
EXTT0=
EXTT1=
EXTT2=
EXTT3=
EXTT4=
EXTT5=
EXTT6=
EXTT7=
EXTT8=
EXTT9=
EXTT10=
EXTT11=
EXTT12=
EXTT13=
EXTT14=
EXTT15=
EXTT16=
EXTT17=
EXTT18=
EXTT19=
PLAYORDER=
